<svg xmlns="http://www.w3.org/2000/svg" xmlns:xlink="http://www.w3.org/1999/xlink" width="500" zoomAndPan="magnify" viewBox="0 0 375 374.999991" height="500" preserveAspectRatio="xMidYMid meet" version="1.0"><defs><filter x="0%" y="0%" width="100%" xlink:type="simple" xlink:actuate="onLoad" height="100%" id="id1" xlink:show="other"><feColorMatrix values="0 0 0 0 1 0 0 0 0 1 0 0 0 0 1 0 0 0 1 0" color-interpolation-filters="sRGB"/></filter><g><g id="id2"/></g><mask id="id3"><g filter="url(#id1)"><rect x="-37.5" width="450" fill="rgb(0%, 0%, 0%)" y="-37.499999" height="449.999989" fill-opacity="0.6078"/></g></mask><clipPath id="id4"><path d="M 0.238281 0.238281 L 206.878906 0.238281 L 206.878906 206.878906 L 0.238281 206.878906 Z M 0.238281 0.238281 " clip-rule="nonzero"/></clipPath><clipPath id="id5"><rect x="0" width="207" y="0" height="207"/></clipPath></defs><path fill="rgb(36.079407%, 88.238525%, 90.19928%)" d="M 90.402344 222.4375 C 89.835938 220.933594 89.367188 219.332031 88.894531 217.824219 L 217.917969 88.800781 C 219.425781 89.273438 221.027344 89.742188 222.535156 90.308594 Z M 202.851562 85.503906 C 201.0625 85.222656 199.175781 85.035156 197.386719 84.847656 L 84.847656 197.386719 C 85.035156 199.175781 85.222656 201.0625 85.503906 202.851562 Z M 246.738281 102.832031 C 245.511719 101.984375 244.289062 101.136719 243.0625 100.386719 L 100.386719 243.0625 C 101.136719 244.289062 101.984375 245.511719 102.832031 246.738281 Z M 231.199219 93.886719 C 229.785156 93.226562 228.371094 92.570312 226.960938 92.003906 L 92.097656 226.867188 C 92.664062 228.277344 93.320312 229.691406 93.980469 231.105469 Z M 239.203125 98.125 C 237.882812 97.371094 236.566406 96.617188 235.246094 95.957031 L 95.863281 235.339844 C 96.523438 236.660156 97.277344 237.980469 98.03125 239.296875 Z M 146.25 93.039062 C 141.824219 95.015625 137.492188 97.277344 133.347656 99.820312 L 99.820312 133.347656 C 97.183594 137.492188 94.921875 141.824219 93.039062 146.25 Z M 185.523438 84.375 L 84.375 185.523438 C 84.375 187.59375 84.375 189.570312 84.46875 191.644531 L 191.550781 84.46875 C 189.570312 84.375 187.5 84.375 185.523438 84.375 Z M 291.09375 187.21875 L 187.21875 291.09375 C 189.289062 291.09375 191.453125 291.09375 193.527344 290.90625 L 290.90625 193.527344 C 291 191.453125 291.09375 189.289062 291.09375 187.21875 Z M 253.707031 108.203125 C 252.578125 107.261719 251.445312 106.320312 250.316406 105.472656 L 105.472656 250.316406 C 106.320312 251.445312 107.261719 252.574219 108.203125 253.707031 Z M 179.023438 84.75 C 176.667969 84.941406 174.410156 85.222656 172.054688 85.597656 L 85.597656 172.054688 C 85.222656 174.410156 84.941406 176.667969 84.75 179.023438 Z M 164.519531 87.011719 C 161.695312 87.671875 158.871094 88.425781 156.042969 89.367188 L 89.273438 156.042969 C 88.425781 158.871094 87.578125 161.601562 86.917969 164.519531 Z M 213.023438 87.484375 C 211.328125 87.105469 209.726562 86.730469 208.03125 86.351562 L 86.351562 208.03125 C 86.730469 209.726562 87.105469 211.328125 87.484375 213.023438 Z M 289.210938 207.464844 C 289.683594 205.015625 290.058594 202.660156 290.339844 200.214844 L 200.214844 290.339844 C 202.660156 290.058594 205.109375 289.683594 207.464844 289.210938 Z M 290.90625 181.285156 C 290.8125 179.398438 290.625 177.515625 290.4375 175.632812 L 175.632812 290.339844 C 177.515625 290.53125 179.398438 290.71875 181.285156 290.8125 Z M 289.589844 170.265625 C 289.304688 168.570312 288.929688 166.875 288.550781 165.179688 L 165.085938 288.550781 C 166.78125 288.929688 168.476562 289.304688 170.171875 289.589844 Z M 260.109375 113.945312 C 259.074219 112.910156 258.039062 111.96875 257.003906 110.933594 L 111.027344 256.910156 C 111.96875 257.945312 113.003906 258.980469 114.039062 260.015625 Z M 266.136719 255.023438 C 271.316406 248.996094 275.648438 242.59375 279.226562 235.8125 L 235.8125 279.226562 C 242.59375 275.648438 248.996094 271.316406 255.023438 266.136719 Z M 287.328125 160.28125 C 286.855469 158.679688 286.386719 157.175781 285.914062 155.574219 L 155.574219 285.914062 C 157.175781 286.386719 158.679688 286.855469 160.28125 287.328125 Z M 284.3125 224.699219 C 285.445312 221.6875 286.480469 218.671875 287.328125 215.5625 L 215.5625 287.328125 C 218.671875 286.480469 221.6875 285.445312 224.699219 284.3125 Z M 271.507812 127.132812 C 270.660156 126 269.8125 124.777344 268.867188 123.648438 L 123.648438 268.773438 C 124.777344 269.714844 126 270.5625 127.132812 271.410156 Z M 284.3125 151.050781 C 283.75 149.546875 283.183594 148.132812 282.523438 146.71875 L 146.625 282.617188 C 148.039062 283.277344 149.546875 283.84375 150.957031 284.40625 Z M 266.042969 120.257812 C 265.101562 119.125 264.160156 118.089844 263.125 117.054688 L 117.054688 263.125 C 118.089844 264.160156 119.222656 265.101562 120.257812 266.042969 Z M 276.308594 134.476562 C 275.554688 133.253906 274.800781 131.933594 273.953125 130.710938 L 130.710938 273.953125 C 131.933594 274.800781 133.160156 275.554688 134.476562 276.308594 Z M 280.640625 142.484375 C 279.980469 141.164062 279.324219 139.75 278.570312 138.433594 L 138.433594 278.570312 C 139.75 279.324219 141.070312 279.980469 142.484375 280.640625 Z M 280.640625 142.484375 " fill-opacity="1" fill-rule="nonzero"/><g mask="url(#id3)"><g transform="matrix(1, 0, 0, 1, 84, 84)"><g clip-path="url(#id5)"><g clip-path="url(#id4)"><path fill="rgb(1.179504%, 59.609985%, 61.959839%)" d="M 103.5 0.375 C 46.542969 0.375 0.375 46.542969 0.375 103.5 C 0.375 160.457031 46.542969 206.625 103.5 206.625 L 206.625 206.625 L 206.625 103.5 C 206.644531 46.542969 160.457031 0.375 103.5 0.375 Z M 103.5 0.375 " fill-opacity="1" fill-rule="nonzero"/></g></g></g></g><path fill="rgb(100%, 100%, 100%)" d="M 237.453125 241.617188 L 187.5 213.230469 L 224.707031 187.5 Z M 206.757812 212.371094 L 222.007812 221.039062 L 218.113281 204.503906 Z M 206.757812 212.371094 " fill-opacity="1" fill-rule="nonzero"/><g fill="rgb(100%, 100%, 100%)" fill-opacity="1"><g transform="translate(110.32751, 240.798074)"><g><path d="M 50.453125 -17.1875 C 53.347656 -17.1875 56.160156 -17.625 58.890625 -18.5 C 61.617188 -19.375 63.625 -20.21875 64.90625 -21.03125 L 66.828125 -22.34375 L 74.90625 -6.171875 C 74.632812 -5.960938 74.265625 -5.691406 73.796875 -5.359375 C 73.328125 -5.023438 72.234375 -4.398438 70.515625 -3.484375 C 68.796875 -2.578125 66.957031 -1.785156 65 -1.109375 C 63.050781 -0.429688 60.488281 0.171875 57.3125 0.703125 C 54.144531 1.242188 50.878906 1.515625 47.515625 1.515625 C 39.765625 1.515625 32.414062 -0.382812 25.46875 -4.1875 C 18.53125 -8 12.9375 -13.238281 8.6875 -19.90625 C 4.445312 -26.582031 2.328125 -33.796875 2.328125 -41.546875 C 2.328125 -47.410156 3.570312 -53.035156 6.0625 -58.421875 C 8.5625 -63.816406 11.878906 -68.4375 16.015625 -72.28125 C 20.160156 -76.125 24.992188 -79.191406 30.515625 -81.484375 C 36.046875 -83.773438 41.710938 -84.921875 47.515625 -84.921875 C 52.910156 -84.921875 57.878906 -84.28125 62.421875 -83 C 66.972656 -81.71875 70.191406 -80.4375 72.078125 -79.15625 L 74.90625 -77.234375 L 66.828125 -61.0625 C 66.347656 -61.46875 65.632812 -61.957031 64.6875 -62.53125 C 63.75 -63.101562 61.863281 -63.859375 59.03125 -64.796875 C 56.207031 -65.742188 53.347656 -66.21875 50.453125 -66.21875 C 45.867188 -66.21875 41.753906 -65.472656 38.109375 -63.984375 C 34.472656 -62.503906 31.59375 -60.550781 29.46875 -58.125 C 27.34375 -55.695312 25.722656 -53.082031 24.609375 -50.28125 C 23.503906 -47.488281 22.953125 -44.644531 22.953125 -41.75 C 22.953125 -35.414062 25.328125 -29.738281 30.078125 -24.71875 C 34.828125 -19.695312 41.617188 -17.1875 50.453125 -17.1875 Z M 50.453125 -17.1875 "/></g></g></g></svg>